<svg width="19" height="19" viewBox="0 0 19 19" fill="none" xmlns="http://www.w3.org/2000/svg">
<path d="M3.94506 5.69761C4.90171 5.69761 5.67722 4.92209 5.67722 3.96544C5.67722 3.00879 4.90171 2.23328 3.94506 2.23328C2.98841 2.23328 2.21289 3.00879 2.21289 3.96544C2.21289 4.92209 2.98841 5.69761 3.94506 5.69761Z" fill="black"/>
<path d="M7.31261 7.0102V16.6202H10.2964V11.8679C10.2964 10.6139 10.5323 9.39945 12.0872 9.39945C13.6206 9.39945 13.6396 10.8332 13.6396 11.947V16.621H16.625V11.3509C16.625 8.76216 16.0677 6.77271 13.0419 6.77271C11.5892 6.77271 10.6154 7.56991 10.2172 8.32437H10.1769V7.0102H7.31261ZM2.4502 7.0102H5.43874V16.6202H2.4502V7.0102Z" fill="black"/>
</svg>
