<svg width="18" height="15" viewBox="0 0 18 15" fill="none" xmlns="http://www.w3.org/2000/svg">
<path fill-rule="evenodd" clip-rule="evenodd" d="M12.4617 0C10.4233 0 8.76873 1.69487 8.76873 3.78656C8.76873 4.08338 8.80125 4.37321 8.86418 4.64959C5.79583 4.4915 3.07464 2.98376 1.25283 0.693648C0.935031 1.25287 0.753583 1.90242 0.753583 2.59715C0.753583 3.91024 1.40595 5.06901 2.39552 5.74814C1.79088 5.72932 1.22189 5.55886 0.722643 5.27549V5.32281C0.722643 7.15748 1.99592 8.68834 3.68611 9.0357C3.37513 9.12228 3.04895 9.16852 2.71332 9.16852C2.47419 9.16852 2.24397 9.1454 2.01742 9.10077C2.48835 10.6053 3.85182 11.699 5.46702 11.7291C4.20318 12.7454 2.61053 13.3508 0.881541 13.3508C0.583673 13.3508 0.288428 13.332 0 13.2971C1.63512 14.3725 3.57493 15 5.66105 15C12.4527 15 16.1677 9.22874 16.1677 4.22587C16.1677 4.06187 16.164 3.89841 16.1572 3.73602C16.8783 3.20261 17.505 2.53531 18 1.77552C17.3377 2.07718 16.626 2.28043 15.8787 2.37238C16.6418 1.90404 17.2265 1.16199 17.5018 0.276921C16.7896 0.710855 15.9978 1.02649 15.1577 1.19641C14.4838 0.459743 13.5241 0 12.4617 0Z" fill="black"/>
</svg>
