<svg id="Calque_1" data-name="Calque 1" xmlns="http://www.w3.org/2000/svg" xmlns:xlink="http://www.w3.org/1999/xlink" viewBox="0 0 312.04 105"><defs><style>.cls-1{fill:none;}.cls-2{fill:#2e5195;}.cls-3{fill:#88cac0;}.cls-4{clip-path:url(#clip-path);}.cls-5{fill:#1d1d1b;}.cls-6{fill:#000091;}.cls-7{fill:#e1000f;}.cls-8{fill:#9d9d9c;}</style><clipPath id="clip-path"><polygon class="cls-1" points="161.03 76.58 200.18 0.28 294.31 22.17 161.03 76.58"/></clipPath></defs><path class="cls-2" d="M195.63,21.79a14.62,14.62,0,0,0-7.71-3.24,27.18,27.18,0,0,0-2.76-.19l-1.9,0H171V56.68h12.22l1.92,0a26.19,26.19,0,0,0,2.74-.19,14.54,14.54,0,0,0,7.71-3.24,16.69,16.69,0,0,0,4.78-6.75,24.21,24.21,0,0,0,1.62-9,24.26,24.26,0,0,0-1.62-9A16.53,16.53,0,0,0,195.63,21.79Zm-1.2,21.47a12,12,0,0,1-2.52,4.66,7.54,7.54,0,0,1-4.42,2.42,16.26,16.26,0,0,1-2.2.24c-.83,0-1.51.05-2,.05h-5.7V24.38h5.7c.53,0,1.21,0,2,0a12.48,12.48,0,0,1,2.2.25A7.78,7.78,0,0,1,191.87,27a11.54,11.54,0,0,1,2.54,4.61,20.24,20.24,0,0,1,.83,5.86A19.45,19.45,0,0,1,194.43,43.26Z"/><path class="cls-2" d="M229.76,32.48a8.33,8.33,0,0,0-4.33-4.1,17,17,0,0,0-6.75-1.25,13.33,13.33,0,0,0-8.08,2.21,10.84,10.84,0,0,0-4.06,5.86L212.4,37a5.05,5.05,0,0,1,2.53-3.12,8.36,8.36,0,0,1,3.75-.91c2.15,0,3.68.47,4.58,1.41a5.45,5.45,0,0,1,1.28,3.44l-3.37.49c-1.82.26-3.51.54-5.06.84a35.34,35.34,0,0,0-4.06,1,11.6,11.6,0,0,0-3.73,2,7.48,7.48,0,0,0-2.13,2.88,9.7,9.7,0,0,0-.69,3.74,8.68,8.68,0,0,0,1.11,4.34,8.14,8.14,0,0,0,3.26,3.16,10.83,10.83,0,0,0,5.27,1.18A13.11,13.11,0,0,0,221.62,56a12,12,0,0,0,3.61-3.23v3.88h5.62V39a33.61,33.61,0,0,0-.16-3.45A8.92,8.92,0,0,0,229.76,32.48Zm-5.91,15.13a6.54,6.54,0,0,1-1.24,2.1,7.39,7.39,0,0,1-2.46,1.89,8.19,8.19,0,0,1-3.73.77,6,6,0,0,1-2.54-.48,3.72,3.72,0,0,1-1.56-1.29,3.31,3.31,0,0,1-.53-1.88,3.14,3.14,0,0,1,.41-1.62,3.94,3.94,0,0,1,1.19-1.22,7.74,7.74,0,0,1,1.89-.93,25,25,0,0,1,2.64-.68c1-.2,2.18-.42,3.57-.65l3-.49c0,.49,0,1-.06,1.67A8.87,8.87,0,0,1,223.85,47.61Z"/><path class="cls-2" d="M250.92,27.81a10.81,10.81,0,0,0-2.65.51,9.35,9.35,0,0,0-2.36,1.13,7.68,7.68,0,0,0-2.14,2,9.6,9.6,0,0,0-.73,1.14V27.94h-5.67V56.7h6.45V42.07a11.25,11.25,0,0,1,.4-3.08,7.61,7.61,0,0,1,1.24-2.54,6.51,6.51,0,0,1,2.17-1.84,6.86,6.86,0,0,1,3-.93,8.1,8.1,0,0,1,2.94.24v-6A10.65,10.65,0,0,0,250.92,27.81Z"/><path class="cls-2" d="M278,29.22a13.41,13.41,0,0,0-7.6-2.09A14.31,14.31,0,0,0,263,29.05a13.23,13.23,0,0,0-5,5.39,17.48,17.48,0,0,0-1.81,8.19A15.74,15.74,0,0,0,258,50.35a13.33,13.33,0,0,0,5.15,5.25,15.17,15.17,0,0,0,7.67,1.89,14,14,0,0,0,7.6-2.16,12.84,12.84,0,0,0,5.1-6l-6.34-1.92a6.9,6.9,0,0,1-2.65,3,7.71,7.71,0,0,1-4.09,1.05,6.73,6.73,0,0,1-5.59-2.4,9.33,9.33,0,0,1-1.81-5h20.8a20.07,20.07,0,0,0-1.15-9A12.43,12.43,0,0,0,278,29.22Zm-7.34,3.53a6,6,0,0,1,5.11,2.16,9.08,9.08,0,0,1,1.5,4.34H263.2a9,9,0,0,1,1.64-4.06Q266.75,32.75,270.69,32.75Z"/><path class="cls-2" d="M311.12,44.38a7.46,7.46,0,0,0-3-2.7,24.05,24.05,0,0,0-5.5-2q-3.36-.86-5.05-1.44a5.94,5.94,0,0,1-2.25-1.17,2,2,0,0,1-.56-1.41,2.52,2.52,0,0,1,1.38-2.28,6.4,6.4,0,0,1,3.65-.68,6.89,6.89,0,0,1,3.8,1.2,4.1,4.1,0,0,1,1.66,2.9l6.55-1.17a8.93,8.93,0,0,0-2-4.5,10.35,10.35,0,0,0-4.19-3,15.79,15.79,0,0,0-6-1,15.07,15.07,0,0,0-6,1.08,8.94,8.94,0,0,0-3.94,3.08A7.91,7.91,0,0,0,288.4,36a6.88,6.88,0,0,0,.93,3.67,7.47,7.47,0,0,0,3.06,2.62,28.78,28.78,0,0,0,5.75,2.06c2.17.57,3.77,1,4.82,1.41a4.58,4.58,0,0,1,2,1.16,2.53,2.53,0,0,1,.47,1.59A2.94,2.94,0,0,1,304.2,51a6,6,0,0,1-3.58.92,7.44,7.44,0,0,1-4.37-1.22A5.59,5.59,0,0,1,294,47.34l-6.55,1a10,10,0,0,0,4.05,6.74,14.44,14.44,0,0,0,8.65,2.4q5.56,0,8.72-2.48A8.2,8.2,0,0,0,312,48.19,7.46,7.46,0,0,0,311.12,44.38Z"/><polygon class="cls-3" points="161.03 76.58 200.18 0.28 294.31 22.17 161.03 76.58"/><g class="cls-4"><path d="M195.63,21.79a14.62,14.62,0,0,0-7.71-3.24,27.18,27.18,0,0,0-2.76-.19l-1.9,0H171V56.68h12.22l1.92,0a26.19,26.19,0,0,0,2.74-.19,14.54,14.54,0,0,0,7.71-3.24,16.69,16.69,0,0,0,4.78-6.75,24.21,24.21,0,0,0,1.62-9,24.26,24.26,0,0,0-1.62-9A16.53,16.53,0,0,0,195.63,21.79Zm-1.2,21.47a12,12,0,0,1-2.52,4.66,7.54,7.54,0,0,1-4.42,2.42,16.26,16.26,0,0,1-2.2.24c-.83,0-1.51.05-2,.05h-5.7V24.38h5.7c.53,0,1.21,0,2,0a12.48,12.48,0,0,1,2.2.25A7.78,7.78,0,0,1,191.87,27a11.54,11.54,0,0,1,2.54,4.61,20.24,20.24,0,0,1,.83,5.86A19.45,19.45,0,0,1,194.43,43.26Z"/><path d="M229.76,32.48a8.33,8.33,0,0,0-4.33-4.1,17,17,0,0,0-6.75-1.25,13.33,13.33,0,0,0-8.08,2.21,10.84,10.84,0,0,0-4.06,5.86L212.4,37a5.05,5.05,0,0,1,2.53-3.12,8.36,8.36,0,0,1,3.75-.91c2.15,0,3.68.47,4.58,1.41a5.45,5.45,0,0,1,1.28,3.44l-3.37.49c-1.82.26-3.51.54-5.06.84a35.34,35.34,0,0,0-4.06,1,11.6,11.6,0,0,0-3.73,2,7.48,7.48,0,0,0-2.13,2.88,9.7,9.7,0,0,0-.69,3.74,8.68,8.68,0,0,0,1.11,4.34,8.14,8.14,0,0,0,3.26,3.16,10.83,10.83,0,0,0,5.27,1.18A13.11,13.11,0,0,0,221.62,56a12,12,0,0,0,3.61-3.23v3.88h5.62V39a33.61,33.61,0,0,0-.16-3.45A8.92,8.92,0,0,0,229.76,32.48Zm-5.91,15.13a6.54,6.54,0,0,1-1.24,2.1,7.39,7.39,0,0,1-2.46,1.89,8.19,8.19,0,0,1-3.73.77,6,6,0,0,1-2.54-.48,3.72,3.72,0,0,1-1.56-1.29,3.31,3.31,0,0,1-.53-1.88,3.14,3.14,0,0,1,.41-1.62,3.94,3.94,0,0,1,1.19-1.22,7.74,7.74,0,0,1,1.89-.93,25,25,0,0,1,2.64-.68c1-.2,2.18-.42,3.57-.65l3-.49c0,.49,0,1-.06,1.67A8.87,8.87,0,0,1,223.85,47.61Z"/><path d="M250.92,27.81a10.81,10.81,0,0,0-2.65.51,9.35,9.35,0,0,0-2.36,1.13,7.68,7.68,0,0,0-2.14,2,9.6,9.6,0,0,0-.73,1.14V27.94h-5.67V56.7h6.45V42.07a11.25,11.25,0,0,1,.4-3.08,7.61,7.61,0,0,1,1.24-2.54,6.51,6.51,0,0,1,2.17-1.84,6.86,6.86,0,0,1,3-.93,8.1,8.1,0,0,1,2.94.24v-6A10.65,10.65,0,0,0,250.92,27.81Z"/><path d="M278,29.22a13.41,13.41,0,0,0-7.6-2.09A14.31,14.31,0,0,0,263,29.05a13.23,13.23,0,0,0-5,5.39,17.48,17.48,0,0,0-1.81,8.19A15.74,15.74,0,0,0,258,50.35a13.33,13.33,0,0,0,5.15,5.25,15.17,15.17,0,0,0,7.67,1.89,14,14,0,0,0,7.6-2.16,12.84,12.84,0,0,0,5.1-6l-6.34-1.92a6.9,6.9,0,0,1-2.65,3,7.71,7.71,0,0,1-4.09,1.05,6.73,6.73,0,0,1-5.59-2.4,9.33,9.33,0,0,1-1.81-5h20.8a20.07,20.07,0,0,0-1.15-9A12.43,12.43,0,0,0,278,29.22Zm-7.34,3.53a6,6,0,0,1,5.11,2.16,9.08,9.08,0,0,1,1.5,4.34H263.2a9,9,0,0,1,1.64-4.06Q266.75,32.75,270.69,32.75Z"/><path class="cls-5" d="M311.12,44.38a7.46,7.46,0,0,0-3-2.7,24.05,24.05,0,0,0-5.5-2q-3.36-.86-5.05-1.44a5.94,5.94,0,0,1-2.25-1.17,2,2,0,0,1-.56-1.41,2.52,2.52,0,0,1,1.38-2.28,6.4,6.4,0,0,1,3.65-.68,6.89,6.89,0,0,1,3.8,1.2,4.1,4.1,0,0,1,1.66,2.9l6.55-1.17a8.93,8.93,0,0,0-2-4.5,10.35,10.35,0,0,0-4.19-3,15.79,15.79,0,0,0-6-1,15.07,15.07,0,0,0-6,1.08,8.94,8.94,0,0,0-3.94,3.08A7.91,7.91,0,0,0,288.4,36a6.88,6.88,0,0,0,.93,3.67,7.47,7.47,0,0,0,3.06,2.62,28.78,28.78,0,0,0,5.75,2.06c2.17.57,3.77,1,4.82,1.41a4.58,4.58,0,0,1,2,1.16,2.53,2.53,0,0,1,.47,1.59A2.94,2.94,0,0,1,304.2,51a6,6,0,0,1-3.58.92,7.44,7.44,0,0,1-4.37-1.22A5.59,5.59,0,0,1,294,47.34l-6.55,1a10,10,0,0,0,4.05,6.74,14.44,14.44,0,0,0,8.65,2.4q5.56,0,8.72-2.48A8.2,8.2,0,0,0,312,48.19,7.46,7.46,0,0,0,311.12,44.38Z"/></g><circle cx="160.46" cy="77.15" r="3.44"/><path d="M176.61,83.41a3.24,3.24,0,0,0-.92-1.3,2.78,2.78,0,0,0-1.49-.62l-.53,0h-2.73v7.39h2.73a4.39,4.39,0,0,0,.53,0,2.78,2.78,0,0,0,1.49-.62,3.21,3.21,0,0,0,.92-1.3,4.63,4.63,0,0,0,.31-1.73A4.68,4.68,0,0,0,176.61,83.41Zm-1.15,2.84a2.43,2.43,0,0,1-.48.9,1.47,1.47,0,0,1-.85.47l-.42,0h-1.49V82.62h1.49a1.73,1.73,0,0,1,.42.05,1.52,1.52,0,0,1,.84.46,2.26,2.26,0,0,1,.49.89,3.77,3.77,0,0,1,.16,1.13A4.42,4.42,0,0,1,175.46,86.25Z"/><polygon points="181.71 81.29 180.49 81.29 180.1 82.52 181.32 82.52 181.71 81.29"/><path d="M182.09,83.54a2.57,2.57,0,0,0-1.47-.4,2.76,2.76,0,0,0-1.44.37,2.57,2.57,0,0,0-1,1,3.41,3.41,0,0,0-.35,1.58,3,3,0,0,0,.36,1.49,2.6,2.6,0,0,0,1,1,3,3,0,0,0,1.48.36,2.73,2.73,0,0,0,1.47-.42,2.5,2.5,0,0,0,1-1.17L181.92,87a1.34,1.34,0,0,1-.51.59,1.52,1.52,0,0,1-.79.2,1.3,1.3,0,0,1-1.08-.46,1.92,1.92,0,0,1-.33-1h4a3.94,3.94,0,0,0-.22-1.73A2.39,2.39,0,0,0,182.09,83.54Zm-2.84,1.94a1.85,1.85,0,0,1,.3-.78,1.36,1.36,0,0,1,1.13-.47,1.16,1.16,0,0,1,1,.42,1.93,1.93,0,0,1,.27.84Z"/><path d="M186.1,84.53a1.33,1.33,0,0,1,.8-.23,1.22,1.22,0,0,1,.76.25,1.42,1.42,0,0,1,.48.7l1.23-.33a2.17,2.17,0,0,0-.86-1.3,2.64,2.64,0,0,0-1.6-.48,2.7,2.7,0,0,0-1.45.38,2.49,2.49,0,0,0-.94,1,3.46,3.46,0,0,0-.34,1.51,3.31,3.31,0,0,0,.33,1.5,2.49,2.49,0,0,0,.93,1.05,2.63,2.63,0,0,0,1.46.38,2.67,2.67,0,0,0,1.57-.45,2.37,2.37,0,0,0,.9-1.3L188.11,87a1.4,1.4,0,0,1-.43.65,1.23,1.23,0,0,1-.78.23,1.19,1.19,0,0,1-1.05-.49,2.09,2.09,0,0,1-.35-1.28,2.59,2.59,0,0,1,.15-.91A1.21,1.21,0,0,1,186.1,84.53Z"/><path d="M195.61,88.84v-3.1c0-.13,0-.31,0-.52a3.1,3.1,0,0,0-.15-.68,2.2,2.2,0,0,0-.35-.68,1.75,1.75,0,0,0-.64-.52,2.2,2.2,0,0,0-1-.21,2.34,2.34,0,0,0-1.31.34,2.11,2.11,0,0,0-.5.44V81.44h-1.1v7.39h1.25V86a2.69,2.69,0,0,1,.11-.83,1.15,1.15,0,0,1,.3-.51,1.09,1.09,0,0,1,.42-.26,1.5,1.5,0,0,1,.47-.08,1.14,1.14,0,0,1,.7.19,1.25,1.25,0,0,1,.39.49,2.22,2.22,0,0,1,.17.61c0,.21,0,.41,0,.58v2.67Z"/><rect x="197.13" y="83.3" width="1.24" height="5.55"/><rect x="197.13" y="81.32" width="1.24" height="1.13"/><path d="M201.6,88.84V84.27h2.22v4.57h1.24V84.27h1.34v-1h-1.34V83a.64.64,0,0,1,.17-.46.69.69,0,0,1,.53-.18h.64v-1h-1.16a2.08,2.08,0,0,0-.54.11,1.41,1.41,0,0,0-.51.36,1.12,1.12,0,0,0-.26.46,2.28,2.28,0,0,0-.09.51c0,.17,0,.32,0,.46v.09H201.6V83a.64.64,0,0,1,.17-.46.69.69,0,0,1,.53-.18h.64v-1h-1.16a2.08,2.08,0,0,0-.54.11,1.41,1.41,0,0,0-.51.36,1.12,1.12,0,0,0-.26.46,2.28,2.28,0,0,0-.09.51c0,.17,0,.32,0,.46v.09h-.89v1h.89v4.57Z"/><path d="M210.42,83.3a1.72,1.72,0,0,0-.51,0,1.78,1.78,0,0,0-.51.1,1.57,1.57,0,0,0-.45.22,1.49,1.49,0,0,0-.41.38,2.15,2.15,0,0,0-.14.26V83.3h-1.09v5.55h1.24V86a2.21,2.21,0,0,1,.08-.59,1.4,1.4,0,0,1,.24-.49,1.31,1.31,0,0,1,.42-.35,1.36,1.36,0,0,1,.58-.18,1.5,1.5,0,0,1,.57,0V83.3Z"/><path d="M215.36,83.54a2.57,2.57,0,0,0-1.47-.4,2.76,2.76,0,0,0-1.44.37,2.57,2.57,0,0,0-1,1,3.41,3.41,0,0,0-.35,1.58,3,3,0,0,0,.36,1.49,2.6,2.6,0,0,0,1,1A3,3,0,0,0,214,89a2.73,2.73,0,0,0,1.47-.42,2.5,2.5,0,0,0,1-1.17L215.19,87a1.34,1.34,0,0,1-.51.59,1.52,1.52,0,0,1-.79.2,1.3,1.3,0,0,1-1.08-.46,1.92,1.92,0,0,1-.33-1h4a3.94,3.94,0,0,0-.22-1.73A2.28,2.28,0,0,0,215.36,83.54Zm-2.84,1.94a1.85,1.85,0,0,1,.3-.78,1.36,1.36,0,0,1,1.13-.47,1.16,1.16,0,0,1,1,.42,1.93,1.93,0,0,1,.27.84Z"/><path d="M219.73,84.58a1.36,1.36,0,0,1,.58-.18,1.5,1.5,0,0,1,.57,0V83.3a1.72,1.72,0,0,0-.51,0,1.78,1.78,0,0,0-.51.1,1.57,1.57,0,0,0-.45.22A1.49,1.49,0,0,0,219,84a2.15,2.15,0,0,0-.14.26V83.3h-1.09v5.55H219V86a2.21,2.21,0,0,1,.08-.59,1.4,1.4,0,0,1,.24-.49A1,1,0,0,1,219.73,84.58Z"/><rect x="224" y="81.29" width="0.76" height="7.55"/><path d="M231.12,87.48l-.7-.27a1.81,1.81,0,0,1-.7.79,2,2,0,0,1-1,.28,1.64,1.64,0,0,1-1.35-.58,2.39,2.39,0,0,1-.45-1.41h4.35a4,4,0,0,0-.27-1.68,2.31,2.31,0,0,0-.88-1.08,2.53,2.53,0,0,0-1.4-.38,2.62,2.62,0,0,0-1.39.36,2.38,2.38,0,0,0-.91,1,3.49,3.49,0,0,0-.32,1.57,3.32,3.32,0,0,0,.33,1.53,2.5,2.5,0,0,0,.92,1,2.65,2.65,0,0,0,3.81-1.16Zm-3.8-3.07a1.66,1.66,0,0,1,1.37-.58,1.57,1.57,0,0,1,1.3.55,2.36,2.36,0,0,1,.44,1.26H226.9A2.46,2.46,0,0,1,227.32,84.41Z"/><path d="M238.47,88.84V85.26h0a1.57,1.57,0,0,1,.19-.83,1.14,1.14,0,0,1,.49-.46,1.47,1.47,0,0,1,.61-.14,1.2,1.2,0,0,1,.91.37,1.37,1.37,0,0,1,.36,1v3.64h.76V85.07a1.91,1.91,0,0,0-.5-1.39,1.81,1.81,0,0,0-1.34-.52,1.92,1.92,0,0,0-1,.25,1.86,1.86,0,0,0-.69.7h0s0,0,0-.06a1.59,1.59,0,0,0-.65-.66,2,2,0,0,0-.94-.23,2,2,0,0,0-1,.24,1.78,1.78,0,0,0-.57.52V83.3h-.68v5.55h.76V85.27a1.52,1.52,0,0,1,.35-1,1.21,1.21,0,0,1,.93-.39,1.24,1.24,0,0,1,.93.38,1.44,1.44,0,0,1,.35,1v3.59h.74Z"/><path d="M247.89,87.6a3.91,3.91,0,0,0,0-3,2.44,2.44,0,0,0-.9-1,2.59,2.59,0,0,0-3.73,1,3.85,3.85,0,0,0,0,3,2.47,2.47,0,0,0,.9,1,2.87,2.87,0,0,0,2.82,0A2.36,2.36,0,0,0,247.89,87.6Zm-2.32.67a1.61,1.61,0,0,1-1.36-.6,2.55,2.55,0,0,1-.46-1.6,3.09,3.09,0,0,1,.2-1.14,1.68,1.68,0,0,1,.6-.78,1.73,1.73,0,0,1,1-.28,1.61,1.61,0,0,1,1.37.6,3.05,3.05,0,0,1,0,3.19A1.56,1.56,0,0,1,245.57,88.27Z"/><path d="M253.07,84.48a2,2,0,0,1,.28.68,3.76,3.76,0,0,1,.09.85v2.83h.76v-3a3.81,3.81,0,0,0-.07-.75,2.81,2.81,0,0,0-.23-.71,2.31,2.31,0,0,0-.42-.6,2,2,0,0,0-.63-.42,2.33,2.33,0,0,0-.87-.15,2.38,2.38,0,0,0-1.2.3,2,2,0,0,0-.66.65V83.3h-.68v5.55h.76v-3a3,3,0,0,1,.11-.84,1.7,1.7,0,0,1,.32-.63,1.42,1.42,0,0,1,.51-.4,1.73,1.73,0,0,1,.71-.14,1.53,1.53,0,0,1,.74.16A1.43,1.43,0,0,1,253.07,84.48Z"/><path d="M259.61,88.05v.79h.68V81.45h-.76V84a2,2,0,0,0-.45-.43,2.24,2.24,0,0,0-1.32-.38,2.15,2.15,0,0,0-1.3.39,2.48,2.48,0,0,0-.83,1,4,4,0,0,0,0,3,2.58,2.58,0,0,0,.84,1.05,2.25,2.25,0,0,0,1.33.39,2.1,2.1,0,0,0,1.29-.39A2.34,2.34,0,0,0,259.61,88.05Zm-1.74.24a1.6,1.6,0,0,1-1-.29,1.77,1.77,0,0,1-.58-.8,3.17,3.17,0,0,1-.19-1.14,3.12,3.12,0,0,1,.19-1.13,1.7,1.7,0,0,1,.58-.8,1.57,1.57,0,0,1,1-.29,1.54,1.54,0,0,1,1,.28,1.69,1.69,0,0,1,.57.78,3.15,3.15,0,0,1,.19,1.15,3.19,3.19,0,0,1-.19,1.15,1.69,1.69,0,0,1-.58.79A1.44,1.44,0,0,1,257.87,88.29Z"/><path d="M266.6,87.48l-.7-.27a1.81,1.81,0,0,1-.7.79,2,2,0,0,1-1,.28,1.64,1.64,0,0,1-1.35-.58,2.39,2.39,0,0,1-.45-1.41h4.35a4,4,0,0,0-.27-1.68,2.31,2.31,0,0,0-.88-1.08,2.53,2.53,0,0,0-1.4-.38,2.62,2.62,0,0,0-1.39.36,2.38,2.38,0,0,0-.91,1,3.49,3.49,0,0,0-.32,1.57,3.32,3.32,0,0,0,.33,1.53,2.5,2.5,0,0,0,.92,1,2.86,2.86,0,0,0,2.85,0A2.5,2.5,0,0,0,266.6,87.48Zm-3.79-3.07a1.66,1.66,0,0,1,1.37-.58,1.57,1.57,0,0,1,1.3.55,2.36,2.36,0,0,1,.44,1.26h-3.53A2.37,2.37,0,0,1,262.81,84.41Z"/><path d="M273.79,84a2,2,0,0,0-.45-.43,2.24,2.24,0,0,0-1.32-.38,2.15,2.15,0,0,0-1.3.39,2.48,2.48,0,0,0-.83,1,4,4,0,0,0,0,3,2.58,2.58,0,0,0,.84,1,2.25,2.25,0,0,0,1.33.39,2.1,2.1,0,0,0,1.29-.39,2.13,2.13,0,0,0,.52-.56v.79h.68V81.45h-.76V84Zm-.11,3.26a1.69,1.69,0,0,1-.58.79,1.78,1.78,0,0,1-2,0,1.77,1.77,0,0,1-.58-.8,3.17,3.17,0,0,1-.19-1.14,3.12,3.12,0,0,1,.19-1.13,1.7,1.7,0,0,1,.58-.8,1.57,1.57,0,0,1,1-.29,1.54,1.54,0,0,1,1,.28,1.69,1.69,0,0,1,.57.78,3.15,3.15,0,0,1,.19,1.15A3,3,0,0,1,273.68,87.21Z"/><path d="M278.21,89a2.38,2.38,0,0,0,1.2-.3,2,2,0,0,0,.66-.65v.81h.68V83.3H280v3a3.11,3.11,0,0,1-.11.84,1.7,1.7,0,0,1-.32.63,1.42,1.42,0,0,1-.51.4,1.73,1.73,0,0,1-.71.14,1.53,1.53,0,0,1-.74-.16,1.44,1.44,0,0,1-.5-.45,2,2,0,0,1-.28-.68,3.76,3.76,0,0,1-.09-.85V83.3H276v3a3.81,3.81,0,0,0,.07.75,3.28,3.28,0,0,0,.23.71,2.31,2.31,0,0,0,.42.6,2,2,0,0,0,.63.42A2.42,2.42,0,0,0,278.21,89Z"/><path d="M284.82,86.83c0,.27,0,.51,0,.72a1.54,1.54,0,0,0,.16.62,1.09,1.09,0,0,0,.54.54,2.1,2.1,0,0,0,.81.2,3.62,3.62,0,0,0,.92-.08v-.66a3.46,3.46,0,0,1-1,0,.77.77,0,0,1-.59-.41.93.93,0,0,1-.11-.41c0-.16,0-.35,0-.58V83.94h1.7V83.3h-1.7V81.76h-.75V83.3h-1.19V84h1.19v2.88Z"/><path d="M289.76,84.25a1.31,1.31,0,0,1,.66-.29,1.59,1.59,0,0,1,.66,0v-.7a1.53,1.53,0,0,0-.53,0,1.94,1.94,0,0,0-.58.12,1.46,1.46,0,0,0-.5.29,1.5,1.5,0,0,0-.32.34c0,.06-.07.14-.11.2V83.3h-.68v5.55h.75V86.08a5.16,5.16,0,0,1,.05-.67,2.34,2.34,0,0,1,.18-.64A1.61,1.61,0,0,1,289.76,84.25Z"/><path d="M296.26,84.25a1.62,1.62,0,0,0-.75-.82,2.67,2.67,0,0,0-1.29-.29,2.53,2.53,0,0,0-1.49.41,1.93,1.93,0,0,0-.76,1.16l.73.22a1.39,1.39,0,0,1,.55-.81,1.72,1.72,0,0,1,1-.26,1.43,1.43,0,0,1,1.16.4,1.75,1.75,0,0,1,.31,1.09l-.58.08-1,.14q-.51.08-.93.18a2.55,2.55,0,0,0-.73.31,1.49,1.49,0,0,0-.5.53,1.54,1.54,0,0,0-.18.77,1.67,1.67,0,0,0,.21.82,1.52,1.52,0,0,0,.63.6,2.2,2.2,0,0,0,1,.23,2.65,2.65,0,0,0,1.43-.37,2.14,2.14,0,0,0,.68-.75v1h.67V85.41a6.08,6.08,0,0,0,0-.61A2.11,2.11,0,0,0,296.26,84.25Zm-.59,2a2.73,2.73,0,0,1-.07.59,1.79,1.79,0,0,1-.31.75,1.65,1.65,0,0,1-.64.52,2,2,0,0,1-.92.19,1.48,1.48,0,0,1-.72-.15,1,1,0,0,1-.39-.38,1,1,0,0,1-.12-.47.89.89,0,0,1,.14-.5,1,1,0,0,1,.36-.32,2.62,2.62,0,0,1,.46-.19c.23-.06.49-.11.78-.16l.88-.12.55-.07Z"/><polygon points="301.2 83.3 299.58 87.86 297.94 83.3 297.17 83.3 299.19 88.84 299.97 88.84 301.98 83.3 301.2 83.3"/><path d="M307,84.25a1.62,1.62,0,0,0-.75-.82,2.67,2.67,0,0,0-1.29-.29,2.53,2.53,0,0,0-1.49.41,1.93,1.93,0,0,0-.76,1.16l.73.22a1.39,1.39,0,0,1,.55-.81,1.72,1.72,0,0,1,1-.26,1.43,1.43,0,0,1,1.16.4,1.75,1.75,0,0,1,.31,1.09l-.58.08-1,.14q-.51.08-.93.18a2.55,2.55,0,0,0-.73.31,1.49,1.49,0,0,0-.5.53,1.54,1.54,0,0,0-.18.77,1.67,1.67,0,0,0,.21.82,1.52,1.52,0,0,0,.63.6,2.2,2.2,0,0,0,1.05.23,2.65,2.65,0,0,0,1.43-.37,2.14,2.14,0,0,0,.68-.75v1h.67V85.41a6.08,6.08,0,0,0,0-.61A2.59,2.59,0,0,0,307,84.25Zm-.6,2a2.73,2.73,0,0,1-.07.59,1.79,1.79,0,0,1-.31.75,1.65,1.65,0,0,1-.64.52,2,2,0,0,1-.92.19,1.48,1.48,0,0,1-.72-.15,1,1,0,0,1-.39-.38,1,1,0,0,1-.12-.47.89.89,0,0,1,.14-.5,1,1,0,0,1,.36-.32,2.62,2.62,0,0,1,.46-.19c.23-.06.49-.11.78-.16l.88-.12.55-.07A1.6,1.6,0,0,1,306.44,86.3Z"/><rect x="308.71" y="83.3" width="0.76" height="5.55"/><rect x="308.71" y="81.4" width="0.76" height="0.85"/><rect x="311.08" y="81.29" width="0.76" height="7.55"/><path d="M174.77,97.22a2.17,2.17,0,0,0-1.3-.39,2.26,2.26,0,0,0-1.32.38,2.35,2.35,0,0,0-.53.56V97h-.68v8h.76v-3.13a2.62,2.62,0,0,0,.44.44,2.1,2.1,0,0,0,1.29.39,2.25,2.25,0,0,0,1.33-.39,2.43,2.43,0,0,0,.84-1,3.57,3.57,0,0,0,.29-1.49,3.74,3.74,0,0,0-.29-1.49A2.38,2.38,0,0,0,174.77,97.22Zm.13,3.67a1.77,1.77,0,0,1-.58.8,1.53,1.53,0,0,1-1,.29,1.63,1.63,0,0,1-1-.29,1.74,1.74,0,0,1-.58-.79,3.19,3.19,0,0,1-.19-1.15,3.15,3.15,0,0,1,.19-1.15,1.71,1.71,0,0,1,.57-.78,1.79,1.79,0,0,1,1.94,0,1.77,1.77,0,0,1,.58.8,3.12,3.12,0,0,1,.19,1.13A2.56,2.56,0,0,1,174.9,100.89Z"/><path d="M180.9,97.21a2.59,2.59,0,0,0-3.73,1,3.85,3.85,0,0,0,0,3,2.47,2.47,0,0,0,.9,1,2.87,2.87,0,0,0,2.82,0,2.44,2.44,0,0,0,.9-1,3.91,3.91,0,0,0,0-3.05A2.27,2.27,0,0,0,180.9,97.21Zm-.05,4.14a1.59,1.59,0,0,1-1.38.61,1.61,1.61,0,0,1-1.36-.6,2.55,2.55,0,0,1-.46-1.6,3.09,3.09,0,0,1,.2-1.14,1.68,1.68,0,0,1,.6-.78,1.73,1.73,0,0,1,1-.28,1.61,1.61,0,0,1,1.37.6,2.6,2.6,0,0,1,.45,1.6A2.5,2.5,0,0,1,180.85,101.35Z"/><path d="M187.26,100a3.11,3.11,0,0,1-.11.84,1.7,1.7,0,0,1-.32.63,1.42,1.42,0,0,1-.51.4,1.73,1.73,0,0,1-.71.14,1.53,1.53,0,0,1-.74-.16,1.44,1.44,0,0,1-.5-.45,2,2,0,0,1-.28-.68,3.76,3.76,0,0,1-.09-.85V97h-.76V100a3.81,3.81,0,0,0,.07.75,3.28,3.28,0,0,0,.23.71,2.31,2.31,0,0,0,.42.6,2,2,0,0,0,.63.42,2.33,2.33,0,0,0,.87.15,2.38,2.38,0,0,0,1.2-.3,2,2,0,0,0,.66-.65v.81H188V97h-.75v3Z"/><path d="M191.14,97.06a1.46,1.46,0,0,0-.5.29,1.5,1.5,0,0,0-.32.34c0,.06-.07.14-.11.2V97h-.68v5.55h.75V99.76a5.16,5.16,0,0,1,.05-.67,2.34,2.34,0,0,1,.18-.64,1.38,1.38,0,0,1,.42-.52,1.31,1.31,0,0,1,.66-.29,1.59,1.59,0,0,1,.66,0V97a1.53,1.53,0,0,0-.53,0A3.75,3.75,0,0,0,191.14,97.06Z"/><path d="M199.2,97.24a2.57,2.57,0,0,0-1.47-.4,2.76,2.76,0,0,0-1.44.37,2.57,2.57,0,0,0-1,1,3.41,3.41,0,0,0-.35,1.58,3,3,0,0,0,.36,1.49,2.6,2.6,0,0,0,1,1,3,3,0,0,0,1.48.36,2.73,2.73,0,0,0,1.47-.42,2.5,2.5,0,0,0,1-1.17l-1.22-.37a1.34,1.34,0,0,1-.51.59,1.52,1.52,0,0,1-.79.2,1.3,1.3,0,0,1-1.08-.46,1.92,1.92,0,0,1-.33-1h4a3.94,3.94,0,0,0-.22-1.73A2.39,2.39,0,0,0,199.2,97.24Zm-2.85,1.93a1.85,1.85,0,0,1,.3-.78,1.36,1.36,0,0,1,1.13-.47,1.16,1.16,0,0,1,1,.42,1.93,1.93,0,0,1,.27.84Z"/><polygon points="197.21 96.22 198.43 96.22 198.82 94.99 197.6 94.99 197.21 96.22"/><path d="M203.21,98.22A1.33,1.33,0,0,1,204,98a1.22,1.22,0,0,1,.76.25,1.42,1.42,0,0,1,.48.7l1.23-.33a2.17,2.17,0,0,0-.86-1.3,2.64,2.64,0,0,0-1.6-.48,2.7,2.7,0,0,0-1.45.38,2.49,2.49,0,0,0-.94,1,3.46,3.46,0,0,0-.34,1.51,3.31,3.31,0,0,0,.33,1.5,2.49,2.49,0,0,0,.93,1,2.63,2.63,0,0,0,1.46.38,2.67,2.67,0,0,0,1.57-.45,2.37,2.37,0,0,0,.9-1.3l-1.26-.28a1.4,1.4,0,0,1-.43.65,1.23,1.23,0,0,1-.78.23,1.19,1.19,0,0,1-1-.49,2.09,2.09,0,0,1-.35-1.28,2.59,2.59,0,0,1,.15-.91A1.23,1.23,0,0,1,203.21,98.22Z"/><rect x="207.67" y="94.99" width="1.24" height="7.55"/><path d="M214.88,97.87a1.6,1.6,0,0,0-.83-.79,3.31,3.31,0,0,0-1.3-.24,2.55,2.55,0,0,0-1.56.43,2,2,0,0,0-.78,1.13l1.13.35a1,1,0,0,1,.49-.6,1.53,1.53,0,0,1,.72-.17,1.19,1.19,0,0,1,.88.27,1.06,1.06,0,0,1,.23.66l-.64.09c-.35,0-.68.1-1,.16a5.49,5.49,0,0,0-.78.2,2.44,2.44,0,0,0-.72.38,1.4,1.4,0,0,0-.41.56,1.81,1.81,0,0,0-.13.72,1.72,1.72,0,0,0,.21.84,1.55,1.55,0,0,0,.63.61,2.13,2.13,0,0,0,1,.23,2.49,2.49,0,0,0,1.25-.28,2.51,2.51,0,0,0,.7-.65v.78h1.08v-3.4c0-.24,0-.46,0-.67A1.6,1.6,0,0,0,214.88,97.87Zm-1,2.37a1.78,1.78,0,0,1-.11.54,1.28,1.28,0,0,1-.24.41,1.43,1.43,0,0,1-.47.36,1.59,1.59,0,0,1-.72.15,1.19,1.19,0,0,1-.49-.09.68.68,0,0,1-.3-.25.63.63,0,0,1-.1-.36.62.62,0,0,1,.08-.31.75.75,0,0,1,.23-.24,1.51,1.51,0,0,1,.36-.18,4.71,4.71,0,0,1,.51-.13l.69-.13.58-.09C213.86,100,213.86,100.11,213.85,100.24Z"/><rect x="216.62" y="95.01" width="1.24" height="1.13"/><rect x="216.62" y="96.99" width="1.24" height="5.55"/><path d="M221.55,97.06a1.57,1.57,0,0,0-.45.22,1.49,1.49,0,0,0-.41.38,2.15,2.15,0,0,0-.14.26V97h-1.09v5.55h1.24V99.72a2.21,2.21,0,0,1,.08-.59,1.4,1.4,0,0,1,.24-.49,1.31,1.31,0,0,1,.42-.35,1.36,1.36,0,0,1,.58-.18,1.5,1.5,0,0,1,.57,0V97a1.72,1.72,0,0,0-.51,0A1.55,1.55,0,0,0,221.55,97.06Z"/><path d="M227.52,97.24a2.57,2.57,0,0,0-1.47-.4,2.76,2.76,0,0,0-1.44.37,2.57,2.57,0,0,0-1,1,3.41,3.41,0,0,0-.35,1.58,3,3,0,0,0,.36,1.49,2.6,2.6,0,0,0,1,1,3,3,0,0,0,1.48.36,2.73,2.73,0,0,0,1.47-.42,2.5,2.5,0,0,0,1-1.17l-1.22-.37a1.34,1.34,0,0,1-.51.59,1.52,1.52,0,0,1-.79.2,1.3,1.3,0,0,1-1.08-.46,1.92,1.92,0,0,1-.33-1h4a3.94,3.94,0,0,0-.22-1.73A2.39,2.39,0,0,0,227.52,97.24Zm-2.85,1.93a1.85,1.85,0,0,1,.3-.78,1.36,1.36,0,0,1,1.13-.47,1.16,1.16,0,0,1,1,.42,1.93,1.93,0,0,1,.27.84Z"/><path d="M232,97.06a1.57,1.57,0,0,0-.45.22,1.49,1.49,0,0,0-.41.38,2.15,2.15,0,0,0-.14.26V97h-1.09v5.55h1.24V99.72a2.21,2.21,0,0,1,.08-.59,1.4,1.4,0,0,1,.24-.49,1.31,1.31,0,0,1,.42-.35,1.36,1.36,0,0,1,.58-.18,1.5,1.5,0,0,1,.57,0V97a1.72,1.72,0,0,0-.51,0A1.48,1.48,0,0,0,232,97.06Z"/><rect x="236.16" y="94.99" width="0.76" height="7.55"/><path d="M243,100h.41a4,4,0,0,0-.27-1.68,2.31,2.31,0,0,0-.88-1.08,2.53,2.53,0,0,0-1.4-.38,2.62,2.62,0,0,0-1.39.36,2.38,2.38,0,0,0-.91,1,3.49,3.49,0,0,0-.32,1.57,3.32,3.32,0,0,0,.33,1.53,2.5,2.5,0,0,0,.92,1,2.86,2.86,0,0,0,2.85,0,2.53,2.53,0,0,0,1-1.12l-.7-.27a1.81,1.81,0,0,1-.7.79,2,2,0,0,1-1,.28,1.64,1.64,0,0,1-1.35-.58A2.39,2.39,0,0,1,239,100H243Zm-3.91-.63a2.34,2.34,0,0,1,.42-1.23,1.66,1.66,0,0,1,1.37-.58,1.57,1.57,0,0,1,1.3.55,2.36,2.36,0,0,1,.44,1.26Z"/><path d="M250.46,97.65a2,2,0,0,0-.45-.43,2.24,2.24,0,0,0-1.32-.38,2.15,2.15,0,0,0-1.3.39,2.48,2.48,0,0,0-.83,1,4,4,0,0,0,0,3,2.58,2.58,0,0,0,.84,1,2.25,2.25,0,0,0,1.33.39,2.1,2.1,0,0,0,1.29-.39,2.13,2.13,0,0,0,.52-.56v.79h.68V95.15h-.76v2.5Zm-.11,3.25a1.69,1.69,0,0,1-.58.79,1.78,1.78,0,0,1-2,0,1.77,1.77,0,0,1-.58-.8,3.17,3.17,0,0,1-.19-1.14,3.12,3.12,0,0,1,.19-1.13,1.7,1.7,0,0,1,.58-.8,1.64,1.64,0,0,1,1-.29,1.54,1.54,0,0,1,1,.28,1.63,1.63,0,0,1,.57.78,3.7,3.7,0,0,1,0,2.31Z"/><path d="M257.23,100h.41a4,4,0,0,0-.27-1.68,2.31,2.31,0,0,0-.88-1.08,2.53,2.53,0,0,0-1.4-.38,2.62,2.62,0,0,0-1.39.36,2.38,2.38,0,0,0-.91,1,3.49,3.49,0,0,0-.32,1.57,3.32,3.32,0,0,0,.33,1.53,2.5,2.5,0,0,0,.92,1,2.86,2.86,0,0,0,2.85,0,2.53,2.53,0,0,0,1-1.12l-.7-.27a1.81,1.81,0,0,1-.7.79,2,2,0,0,1-1,.28,1.64,1.64,0,0,1-1.35-.58,2.39,2.39,0,0,1-.45-1.41h3.93Zm-3.92-.63a2.34,2.34,0,0,1,.42-1.23,1.66,1.66,0,0,1,1.37-.58,1.57,1.57,0,0,1,1.3.55,2.36,2.36,0,0,1,.44,1.26Z"/><polygon points="255.95 94.99 255.19 94.99 254.8 96.22 255.56 96.22 255.95 94.99"/><path d="M262.68,97.22a2.17,2.17,0,0,0-1.3-.39,2.26,2.26,0,0,0-1.32.38,2.29,2.29,0,0,0-.45.43V95.13h-.76v7.39h.68v-.79a2.33,2.33,0,0,0,.52.56,2.1,2.1,0,0,0,1.29.39,2.25,2.25,0,0,0,1.33-.39,2.43,2.43,0,0,0,.84-1.05,3.57,3.57,0,0,0,.29-1.49,3.74,3.74,0,0,0-.29-1.49A2.44,2.44,0,0,0,262.68,97.22Zm.14,3.67a1.77,1.77,0,0,1-.58.8,1.53,1.53,0,0,1-1,.29,1.63,1.63,0,0,1-1-.29,1.74,1.74,0,0,1-.58-.79,3.19,3.19,0,0,1-.19-1.15,3.15,3.15,0,0,1,.19-1.15,1.71,1.71,0,0,1,.57-.78,1.79,1.79,0,0,1,1.94,0,1.77,1.77,0,0,1,.58.8,3.12,3.12,0,0,1,.19,1.13A2.89,2.89,0,0,1,262.82,100.89Z"/><path d="M269.23,97.94a1.62,1.62,0,0,0-.75-.82,2.67,2.67,0,0,0-1.29-.29,2.53,2.53,0,0,0-1.49.41,1.93,1.93,0,0,0-.76,1.16l.73.22a1.39,1.39,0,0,1,.55-.81,1.72,1.72,0,0,1,1-.26,1.43,1.43,0,0,1,1.16.4,1.75,1.75,0,0,1,.31,1.09l-.58.08-1,.14q-.51.08-.93.18a2.55,2.55,0,0,0-.73.31,1.49,1.49,0,0,0-.5.53,1.54,1.54,0,0,0-.18.77,1.67,1.67,0,0,0,.21.82,1.52,1.52,0,0,0,.63.6,2.2,2.2,0,0,0,1.05.23,2.65,2.65,0,0,0,1.43-.37,2.14,2.14,0,0,0,.68-.75v1h.67V99.1a6.08,6.08,0,0,0,0-.61A1.77,1.77,0,0,0,269.23,97.94Zm-.59,2a2.73,2.73,0,0,1-.07.59,1.79,1.79,0,0,1-.31.75,1.65,1.65,0,0,1-.64.52,2,2,0,0,1-.92.19,1.48,1.48,0,0,1-.72-.15,1,1,0,0,1-.39-.38,1,1,0,0,1-.12-.47.89.89,0,0,1,.14-.5,1,1,0,0,1,.36-.32,2.62,2.62,0,0,1,.46-.19c.23-.06.49-.11.78-.16l.88-.12.55-.07A1.6,1.6,0,0,1,268.64,100Z"/><path d="M272.13,95.45h-.75V97h-1.19v.65h1.19v2.89c0,.27,0,.51,0,.72a1.54,1.54,0,0,0,.16.62,1.09,1.09,0,0,0,.54.54,2.1,2.1,0,0,0,.81.2,3.62,3.62,0,0,0,.92-.08v-.66a3.46,3.46,0,0,1-1,0,.77.77,0,0,1-.59-.41.93.93,0,0,1-.11-.41c0-.16,0-.35,0-.58V97.64h1.7V97h-1.7V95.45Z"/><path d="M280.8,97.22a2.17,2.17,0,0,0-1.3-.39,2.26,2.26,0,0,0-1.32.38,2.35,2.35,0,0,0-.53.56V97H277v8h.76v-3.13a2.62,2.62,0,0,0,.44.44,2.1,2.1,0,0,0,1.29.39,2.25,2.25,0,0,0,1.33-.39,2.43,2.43,0,0,0,.84-1,3.57,3.57,0,0,0,.29-1.49,3.74,3.74,0,0,0-.29-1.49A2.45,2.45,0,0,0,280.8,97.22Zm.13,3.67a1.77,1.77,0,0,1-.58.8,1.53,1.53,0,0,1-1,.29,1.63,1.63,0,0,1-1-.29,1.74,1.74,0,0,1-.58-.79,3.19,3.19,0,0,1-.19-1.15,3.15,3.15,0,0,1,.19-1.15,1.71,1.71,0,0,1,.57-.78,1.79,1.79,0,0,1,1.94,0,1.77,1.77,0,0,1,.58.8,3.12,3.12,0,0,1,.19,1.13A2.72,2.72,0,0,1,280.93,100.89Z"/><path d="M287.08,100a3.11,3.11,0,0,1-.11.84,1.7,1.7,0,0,1-.32.63,1.42,1.42,0,0,1-.51.4,1.73,1.73,0,0,1-.71.14,1.53,1.53,0,0,1-.74-.16,1.44,1.44,0,0,1-.5-.45,2,2,0,0,1-.28-.68,3.76,3.76,0,0,1-.09-.85V97h-.76V100a3.81,3.81,0,0,0,.07.75,3.28,3.28,0,0,0,.23.71,2.31,2.31,0,0,0,.42.6,2,2,0,0,0,.63.42,2.33,2.33,0,0,0,.87.15,2.38,2.38,0,0,0,1.2-.3,2,2,0,0,0,.66-.65v.81h.68V97h-.75v3Z"/><path d="M293.18,97.22a2.17,2.17,0,0,0-1.3-.39,2.26,2.26,0,0,0-1.32.38,2.29,2.29,0,0,0-.45.43V95.13h-.76v7.39H290v-.79a2.33,2.33,0,0,0,.52.56,2.1,2.1,0,0,0,1.29.39,2.25,2.25,0,0,0,1.33-.39,2.43,2.43,0,0,0,.84-1.05,3.57,3.57,0,0,0,.29-1.49,3.74,3.74,0,0,0-.29-1.49A2.51,2.51,0,0,0,293.18,97.22Zm.13,3.67a1.77,1.77,0,0,1-.58.8,1.53,1.53,0,0,1-1,.29,1.63,1.63,0,0,1-1-.29,1.74,1.74,0,0,1-.58-.79,3.19,3.19,0,0,1-.19-1.15,3.15,3.15,0,0,1,.19-1.15,1.71,1.71,0,0,1,.57-.78,1.79,1.79,0,0,1,1.94,0,1.77,1.77,0,0,1,.58.8,3.12,3.12,0,0,1,.19,1.13A2.72,2.72,0,0,1,293.31,100.89Z"/><rect x="295.59" y="94.99" width="0.76" height="7.55"/><rect x="297.97" y="96.99" width="0.76" height="5.55"/><rect x="297.97" y="95.09" width="0.76" height="0.85"/><path d="M301.61,97.84a1.89,1.89,0,0,1,2,0,1.58,1.58,0,0,1,.62.77l.74-.24a2,2,0,0,0-.85-1.12,2.64,2.64,0,0,0-1.47-.41,2.56,2.56,0,0,0-1.41.37,2.42,2.42,0,0,0-.89,1,3.66,3.66,0,0,0-.32,1.53,3.81,3.81,0,0,0,.31,1.52,2.33,2.33,0,0,0,.88,1,2.57,2.57,0,0,0,1.42.37,2.52,2.52,0,0,0,1.42-.39,2.38,2.38,0,0,0,.9-1.13l-.76-.23a1.65,1.65,0,0,1-.6.76,1.77,1.77,0,0,1-1,.26,1.58,1.58,0,0,1-1.35-.6,2.69,2.69,0,0,1-.46-1.6,3.19,3.19,0,0,1,.2-1.15A1.65,1.65,0,0,1,301.61,97.84Z"/><path d="M.05,27.66H4.3c3.06,0,4.94,1.57,4.94,4.15A3.76,3.76,0,0,1,7,35.4l4.37,6.15H8L4.32,35.93H2.87v5.62H.05Zm2.82,2.4v3.47H4.46a1.75,1.75,0,1,0,0-3.48H2.87Z"/><path d="M13.12,27.66h8.1v2.4H15.94v3.21h4.48v2.4H15.94v3.47h5.28v2.4h-8.1Zm2.74-1.19,2.24-2.68H21l-2.58,2.68Z"/><path d="M24.49,27.66h4.58c3.06,0,4.92,1.57,4.92,4.15s-1.87,4.13-4.92,4.13H27.3v5.62H24.48V27.66Zm2.82,2.4v3.47h1.88a1.75,1.75,0,1,0,0-3.48H27.31Z"/><path d="M44.52,27.66h2.82v8.45c0,3.65-2.14,5.83-5.64,5.83s-5.62-2.18-5.62-5.83V27.66H38.9v8.69a2.81,2.81,0,1,0,5.62,0Z"/><path d="M50.83,27.66h4c2.9,0,4.64,1.43,4.64,3.77A3.27,3.27,0,0,1,58,34.17a3.53,3.53,0,0,1,2.28,3.29c0,2.54-2,4.09-5.16,4.09H50.82V27.66Zm2.81,2.4v3h1.19c1.07,0,1.69-.54,1.69-1.53a1.48,1.48,0,0,0-1.69-1.51Zm0,5.46v3.63h1.59c1.31,0,2.1-.69,2.1-1.85s-.79-1.79-2.1-1.79Z"/><path d="M63.11,27.66h2.82V39h5.28v2.56h-8.1Z"/><path d="M73.69,27.66h2.82V41.55H73.69Z"/><path d="M95,42.53a2.85,2.85,0,0,0,1-.16v2.38a3.65,3.65,0,0,1-1.47.26,6.52,6.52,0,0,1-4.35-1.83l-1.65-1.47a7.33,7.33,0,0,1-1.9.24,7.34,7.34,0,1,1,7.36-7.34A7.34,7.34,0,0,1,91.2,40.4l.83.79A4.32,4.32,0,0,0,95,42.53Zm-3.91-7.92a4.48,4.48,0,1,0-8.94,0,4.48,4.48,0,1,0,8.94,0Z"/><path d="M104.84,27.66h2.82v8.45c0,3.65-2.14,5.83-5.64,5.83s-5.62-2.18-5.62-5.83V27.66h2.82v8.69a2.81,2.81,0,1,0,5.62,0Z"/><path d="M111.15,27.66h8.1v2.4H114v3.21h4.48v2.4H114v3.47h5.28v2.4h-8.1Z"/><path d="M.05,47.69h8.1v2.4H2.87V53.3H7.35v2.4H2.87v5.87H.05Z"/><path d="M10.62,47.69h4.25c3.06,0,4.94,1.57,4.94,4.15a3.76,3.76,0,0,1-2.22,3.59L22,61.58H18.59L14.9,56H13.45v5.62H10.63V47.69Zm2.82,2.4v3.47H15a1.75,1.75,0,1,0,0-3.48Z"/><path d="M27.81,47.69H31.5l5.26,13.89h-3L32.43,58H26.87l-1.33,3.61h-3Zm3.75,7.88-1.9-5.22-1.9,5.22Z"/><path d="M38.9,47.69h3.61l6.21,9.94V47.69h2.82V61.58H47.93l-6.21-10v10H38.9Z"/><path d="M65.25,57.43l2.22,1.71a6.91,6.91,0,0,1-4.76,2.76L61,64.78h-2.5l1.75-2.92a7.35,7.35,0,1,1,7.24-11.74l-2.22,1.73A4.33,4.33,0,0,0,61.62,50a4.71,4.71,0,0,0,0,9.4A4.35,4.35,0,0,0,65.25,57.43Z"/><path d="M73.33,47.69H77l5.26,13.89h-3L78,58H72.4l-1.33,3.61h-3Zm3.75,7.88-1.9-5.22-1.9,5.22Z"/><path d="M84.42,47.69h2.82V61.58H84.42Z"/><path d="M91.92,57.77A4,4,0,0,0,95,59.48a1.57,1.57,0,0,0,1.79-1.61c0-2.48-6.35-1.92-6.35-6.55a4.16,4.16,0,0,1,4.44-4,6.13,6.13,0,0,1,4.86,2.34l-2.06,1.85a3.68,3.68,0,0,0-2.78-1.73,1.48,1.48,0,0,0-1.61,1.45c0,2.48,6.35,1.9,6.35,6.61C99.6,60.39,97.58,62,95,62a6.26,6.26,0,0,1-5.16-2.32Z"/><path d="M102.6,47.69h8.1v2.4h-5.28V53.3h4.48v2.4h-4.48v3.47h5.28v2.4h-8.1Z"/><path d="M45.24,99.93c.38,0,.7.29.53,1l-1.75.41c.31-.82.82-1.42,1.22-1.42m1,2.82h-.35a2.12,2.12,0,0,1-1.37.93c-.48,0-.72-.29-.72-.93a3.87,3.87,0,0,1,.08-.77l2.82-.93c.55-1.3-.11-1.87-.89-1.87-1.33,0-2.85,2.23-2.85,4.19,0,.88.42,1.35,1.07,1.35s1.56-.74,2.21-2m-.56-4.09,2-1.85V96.6H46.57l-1.22,2.07h.3ZM39.56,100h.94L39,104a.47.47,0,0,0,.41.69,3.46,3.46,0,0,0,2.69-2h-.26a3.69,3.69,0,0,1-1.72,1L41.49,100h1.4l.17-.58H41.7l.52-1.47h-.54l-1,1.47-1.15.16Zm-1.26-.19a.42.42,0,0,0-.34-.59,2.63,2.63,0,0,0-2.17,1.76h.26a2.08,2.08,0,0,1,1.13-.87l-1.56,4.05a.4.4,0,0,0,.34.59A2.58,2.58,0,0,0,38,103h-.26a2.08,2.08,0,0,1-1.13.87Zm.28-2a.67.67,0,1,0-.67-.67.67.67,0,0,0,.67.67m-9,6.24c-.2.46,0,.75.46.75a.46.46,0,0,0,.51-.37l1.08-2.86a3.9,3.9,0,0,1,1.93-1.26c.3,0,.25.24.06.61L32,104a.47.47,0,0,0,.41.69A2.63,2.63,0,0,0,34.58,103h-.26a2.08,2.08,0,0,1-1.13.87L34.62,101a2.35,2.35,0,0,0,.27-1,.69.69,0,0,0-.75-.77c-.7,0-1.42.79-2.26,1.77v-.75c0-.54-.17-1-.66-1-.31,0-.6.26-.88.64v.1c.53,0,.76.76.39,1.6Zm0-3.55c.19-.66.09-1.24-.42-1.24s-.75.46-1.36,1.77v-.75c0-.54-.17-1-.66-1s-1.09.89-1.49,1.76h.26c.27-.4.53-.63.73-.63s.38.38,0,1.21L25.55,104c-.2.46,0,.75.46.75a.46.46,0,0,0,.51-.37l1.08-2.86c.31-.38.58-.7.93-1.07Zm-6.25-.49c.38,0,.7.29.53,1l-1.75.41c.3-.82.81-1.42,1.22-1.42m1,2.82H24a2.12,2.12,0,0,1-1.37.93c-.48,0-.72-.29-.72-.93A3.87,3.87,0,0,1,22,102l2.82-.93c.55-1.3-.11-1.87-.89-1.87-1.33,0-2.85,2.23-2.85,4.19,0,.88.42,1.35,1.07,1.35s1.56-.74,2.21-2M17.66,100h.94L17.11,104a.47.47,0,0,0,.41.69,3.46,3.46,0,0,0,2.69-2H20a3.69,3.69,0,0,1-1.72,1L19.59,100H21l.17-.58H19.8l.52-1.47h-.54l-1,1.47-1.15.16Zm-5.15,3.17c0-1.25,1.4-2.95,2.18-2.95a1.8,1.8,0,0,1,.48.06l-.81,2.17c-.47.57-1.19,1.26-1.53,1.26-.19,0-.32-.16-.32-.54M16.8,99l-.43,0-.48.47h-.1c-2.32,0-4.33,2.61-4.33,4.5a.78.78,0,0,0,.84.84c.6,0,1.19-.86,1.85-1.77l0,.33c-.08.94.2,1.45.69,1.45s1.09-.89,1.49-1.76H16c-.27.4-.53.63-.73.63s-.37-.39,0-1.21Zm-5,1.47c.19-.66.09-1.24-.42-1.24s-.75.46-1.36,1.77v-.75c0-.54-.17-1-.66-1s-1.09.89-1.49,1.76h.26c.27-.4.53-.63.73-.63s.38.38,0,1.21L7.81,104c-.2.46,0,.75.46.75a.46.46,0,0,0,.51-.37l1.08-2.86c.31-.38.58-.7.93-1.07Zm-7.8,4.1.1-.32c-1.35-.25-1.53-.25-1-1.73L3.71,101h1.5c.67,0,.68.27.58,1h.39l.9-2.45H6.69c-.34.58-.6,1-1.33,1H3.88l.78-2.15c.24-.68.39-.82,1.3-.82h.65c.95,0,1.06.25,1.06,1.21h.38l.32-1.67H2.75l-.1.32c1.09.22,1.19.33.68,1.73l-1.22,3.34c-.51,1.4-.72,1.51-2,1.73l-.09.32h4Z"/><path d="M31.61,87.2c.38,0,.7.29.53,1l-1.75.41c.3-.81.81-1.42,1.22-1.42m1,2.83h-.35a2.12,2.12,0,0,1-1.37.93c-.48,0-.72-.29-.72-.93a3.87,3.87,0,0,1,.08-.77L33,88.33c.55-1.3-.11-1.87-.89-1.87-1.33,0-2.85,2.23-2.85,4.19,0,.88.42,1.35,1.07,1.35s1.55-.75,2.21-2M32,85.93l2-1.85v-.21H32.93l-1.22,2.07H32Zm-6.09,1.3h.94l-1.49,4.06a.47.47,0,0,0,.41.69,3.46,3.46,0,0,0,2.69-2h-.26a3.69,3.69,0,0,1-1.72,1l1.36-3.82h1.4l.17-.58H28.08l.52-1.47h-.54l-1,1.47-1.15.16v.43ZM24.66,87a.42.42,0,0,0-.34-.59,2.63,2.63,0,0,0-2.17,1.76h.26a2.08,2.08,0,0,1,1.13-.87L22,91.4a.4.4,0,0,0,.34.59,2.58,2.58,0,0,0,2.07-1.76h-.26A2.08,2.08,0,0,1,23,91.1ZM25,85a.67.67,0,1,0-.67-.67A.66.66,0,0,0,25,85m-5.42,6.09,2.84-7.44-.09-.11-1.78.2V84l.35.26c.32.24.21.48-.07,1.23l-2.22,5.85A.47.47,0,0,0,19,92,2.51,2.51,0,0,0,21,90.22h-.26a2.32,2.32,0,0,1-1.25.87m-5.4-.69c0-1.25,1.4-3,2.18-3a1.8,1.8,0,0,1,.48.06L16,89.68c-.47.57-1.19,1.26-1.53,1.26-.19,0-.32-.16-.32-.54m4.29-4.18-.43,0-.48.47h-.1c-2.32,0-4.33,2.61-4.33,4.5a.78.78,0,0,0,.84.84c.6,0,1.19-.86,1.85-1.77l0,.33c-.08.94.2,1.45.69,1.45s1.09-.89,1.49-1.76h-.26c-.27.4-.53.63-.73.63s-.37-.39,0-1.21ZM8.05,93c0-.54.52-.88,1.26-1.17a10.61,10.61,0,0,0,1.1.42c.77.25,1.07.36,1.07.59,0,.5-.85.88-2,.88-1,0-1.43-.21-1.43-.72m2.11-3.29c-.34,0-.47-.29-.47-.61,0-.91.49-2.24,1.25-2.24.34,0,.47.29.47.61,0,.91-.48,2.24-1.25,2.24m2.21,2.79c0-.65-.58-.89-1.53-1.17S9.66,91,9.66,90.73a.82.82,0,0,1,.52-.65,2.38,2.38,0,0,0,2.2-2.28,1.4,1.4,0,0,0-.11-.56H13.4l.17-.58H11.78a1.39,1.39,0,0,0-.72-.2,2.35,2.35,0,0,0-2.33,2.25,1.31,1.31,0,0,0,1.08,1.35c-.66.3-1,.64-1,1a.65.65,0,0,0,.27.55c-1.53.45-2.13,1-2.13,1.68s.93,1,2,1c1.86,0,3.42-1,3.42-1.86M5.25,88.12c.67,0,.68.27.58,1h.39l.9-2.45H6.73c-.34.58-.6,1-1.33,1H3.92l.74-2c.24-.68.39-.81,1.3-.81h.65c.95,0,1.06.25,1.06,1.2h.38l.32-1.67H2.75l-.1.32c1.09.22,1.19.33.68,1.73L2.11,89.75c-.51,1.4-.72,1.51-2,1.73L0,91.8H6.29L7.41,90H7a4.1,4.1,0,0,1-2.86,1.31c-1.66,0-1.51-.07-1-1.59l.59-1.62H5.25Zm.82-4.27,2-1.36v-.21H6.86l-1.1,1.58h.31Z"/><path d="M31,74.47c.38,0,.7.29.53,1l-1.75.41c.3-.81.81-1.42,1.22-1.42m1,2.83h-.35a2.12,2.12,0,0,1-1.37.93c-.48,0-.72-.29-.72-.93a3.87,3.87,0,0,1,.08-.77l2.82-.93c.55-1.3-.11-1.87-.89-1.87-1.33,0-2.85,2.23-2.85,4.19,0,.88.42,1.35,1.07,1.35s1.56-.75,2.21-2m-.56-4.1,2-1.85v-.21H32.27l-1.22,2.07h.3Zm-5.83,1.31h.74l-1.49,4.06a.47.47,0,0,0,.41.69,3.46,3.46,0,0,0,2.69-2h-.26a3.69,3.69,0,0,1-1.72,1l1.36-3.82h1.4l.17-.58H27.47L28,72.45h-.54l-1,1.47-1,.16Zm-.73.45c.19-.66.09-1.24-.42-1.24s-.75.46-1.36,1.77v-.75c0-.54-.17-1-.66-1s-1.09.89-1.49,1.76h.26c.27-.4.53-.63.73-.63s.38.38,0,1.21l-1.1,2.44c-.2.46,0,.75.46.75a.46.46,0,0,0,.51-.37L22.8,76c.31-.38.58-.7.93-1.07Zm-6.26-.49c.38,0,.7.29.53,1l-1.75.41c.31-.81.82-1.42,1.22-1.42m1,2.83h-.35a2.12,2.12,0,0,1-1.37.93c-.48,0-.72-.29-.72-.93a3.87,3.87,0,0,1,.08-.77L20,75.6c.55-1.3-.11-1.87-.89-1.87-1.33,0-2.85,2.23-2.85,4.19,0,.88.42,1.35,1.07,1.35s1.56-.75,2.21-2m-6.91,1.14c-.27,0-.67-.25-.67-.48a5.51,5.51,0,0,1,.27-.78L12.65,76c.49-.58,1.23-1.2,1.65-1.2.25,0,.45.16.45.54,0,1.1-1,3.13-2.16,3.13m3.2-3.59c0-.82-.31-1.13-.88-1.13s-1.38.75-2.06,1.67l1.7-4.47-.09-.11-1.78.2v.21l.35.26c.32.24.21.5-.07,1.23l-1.83,4.73a5.64,5.64,0,0,0-.3.87c0,.49.66,1,1.26,1,1.39,0,3.7-2.49,3.7-4.41m-5.54-.54a.42.42,0,0,0-.34-.59,2.63,2.63,0,0,0-2.17,1.76H8a2.08,2.08,0,0,1,1.13-.87l-1.56,4a.4.4,0,0,0,.34.59A2.58,2.58,0,0,0,10,77.49H9.72a2.08,2.08,0,0,1-1.13.87Zm.29-2a.67.67,0,1,0-.67-.67.66.66,0,0,0,.67.67m-4.1-.65H2.73l-.1.32c1.09.22,1.19.33.68,1.73L2.11,77c-.51,1.4-.72,1.51-2,1.73L0,79.06H5.68L6.9,76.88H6.48A3.92,3.92,0,0,1,3.72,78.6c-1,0-1.06-.16-.55-1.59l1.2-3.34c.5-1.4.72-1.51,2-1.73Z"/><path class="cls-6" d="M21,16.27l.6-.62h0a11.84,11.84,0,0,1,1.16-1.19,3.1,3.1,0,0,1,.38-.3s0-.1.07-.14c-.17.07-.28.21-.45.28s-.07,0,0-.07l.37-.28h0c-.05,0-.05,0-.05-.07a1.43,1.43,0,0,0-1.12.52c-.07,0-.14,0-.17,0-.52.17-.91.63-1.43.84v-.07a4.8,4.8,0,0,1-.63.24,3.67,3.67,0,0,1-.87,0,11.72,11.72,0,0,0-1.27.23h0a3,3,0,0,0-.65.26h0l-.05.06a.81.81,0,0,1-.24.21,4.1,4.1,0,0,0-.58.45.08.08,0,0,1-.06,0l-.56.54a.18.18,0,0,1-.11,0h0l0,0,.09-.15.1-.16.15-.21a0,0,0,0,0,0-.05l-.05,0a3.54,3.54,0,0,1,.58-.44h0s-.06,0,0,0l.06-.1v0l0,0a1.11,1.11,0,0,0-.16.11c-.08.08-.15.23-.28.23h-.09a0,0,0,0,1,0,0h0l0,0,0,0a0,0,0,0,1,0,0,.08.08,0,0,0,0,0l0,0,0-.08,0,0,0-.06s0-.05,0-.06a.83.83,0,0,1,.24-.21h0l.4-.22.06-.05a2.56,2.56,0,0,0-.55.27l-.06,0s0,0-.09,0,0,0,0,0,.14-.1.21-.17.07,0,.07,0c1.12-.87,2.65-.66,3.94-1.12l.31-.21c.17-.07.31-.24.52-.35a1.49,1.49,0,0,0,.59-.8.15.15,0,0,0,0-.07,5.4,5.4,0,0,1-1.53,1.15,6.73,6.73,0,0,1-2.3.42c0-.07.1-.07.17-.07s.07-.14.14-.21h.1s0-.07.07-.07.17,0,.14,0-.31.1-.49,0c.07-.07,0-.17.1-.21h.14a.24.24,0,0,1,.07-.14c.52-.31,1-.56,1.5-.84-.1,0-.17.1-.28,0,.07,0,0-.1.07-.1.38-.1.7-.31,1.08-.45-.14,0-.24.1-.38,0,.07,0,.1-.1.21-.1v-.1s0,0,.07,0a.15.15,0,0,1-.07,0c0-.07.14,0,.21-.1s-.1,0-.1,0a.71.71,0,0,1,.45-.21c0-.07-.14,0-.14-.07s0,0,.07,0h-.07c-.07,0,0-.1,0-.14a2.31,2.31,0,0,0,.31-.84s-.07,0-.07,0a2.91,2.91,0,0,1-1.43.66H19.2a.72.72,0,0,1-.59,0,2.15,2.15,0,0,1-.35-.28,4.65,4.65,0,0,0-.87-.42,7.67,7.67,0,0,0-2.68-.38,5.68,5.68,0,0,1,1.22-.35,5.42,5.42,0,0,1,1.78-.35,1.37,1.37,0,0,0-.35,0,5.71,5.71,0,0,0-1.5.21c-.35.07-.66.21-1,.28s-.31.28-.56.24v-.1a2,2,0,0,1,1.32-.87,6.76,6.76,0,0,1,1.85.07,8.72,8.72,0,0,1,1.32.24c.17,0,.21.28.35.31s.42,0,.63.14c0-.07,0-.14,0-.21s.31,0,.45,0-.24-.49-.38-.73a.15.15,0,0,1,0-.07,4.4,4.4,0,0,0,.84.7c.17.07.59.17.52,0a5.51,5.51,0,0,0-.8-1V8.49c-.07,0-.07,0-.1-.07V8.28c-.14-.07-.1-.21-.17-.31s0-.42-.1-.63a4.2,4.2,0,0,1-.14-.59c-.1-.59-.24-1.12-.31-1.67S20,3.9,20.3,3.3a2.91,2.91,0,0,1,1-1.12,3,3,0,0,1,.66-1.12A2.91,2.91,0,0,1,23,.36a7.93,7.93,0,0,1,.9-.36H0V18.44H16.94a15.56,15.56,0,0,1,2.25-1.16A8.63,8.63,0,0,0,21,16.27Zm-5.36-2.5c-.07,0-.21,0-.17,0s.28-.17.42-.24.17-.1.24-.07.17.07.24.14C16.13,13.77,15.85,13.67,15.61,13.77ZM10.28,13a.11.11,0,0,1,0-.07,11.25,11.25,0,0,0,1.12-1.78,4.6,4.6,0,0,0,1.18-1A6.73,6.73,0,0,1,14.5,8.64a1.42,1.42,0,0,1,.91,0c-.1.14-.28.1-.42.21a.13.13,0,0,1-.1,0,.13.13,0,0,0,0-.1c-.35.38-.84.56-1.12,1s-.35.8-.8.91c-.14,0,0-.1,0-.07A11.41,11.41,0,0,0,10.28,13Zm2.89-2.3c0,.07-.07.08-.1.14a.27.27,0,0,1-.14.14s-.07,0-.07,0a.4.4,0,0,1,.28-.31S13.17,10.67,13.17,10.7Zm1.62,5.23a.28.28,0,0,1-.09.1s.07,0,.05,0a.76.76,0,0,1-.26.18h-.05l-.13.12s-.23,0-.17,0l.26-.24a1.85,1.85,0,0,0,.14-.14.27.27,0,0,1,.07-.08S14.82,15.86,14.79,15.93Zm-.63-.29h0a4.81,4.81,0,0,1-.41.27c-.15.09-.31.15-.46.23h0a0,0,0,0,0-.06,0,1.82,1.82,0,0,0-.35.27l-.05.05h0l-.05,0h0l-.08.08s0,0,0,.05-.08,0-.08,0h0l-.06,0-.05,0h0l-.13.11a2.09,2.09,0,0,0-.2.22h0a0,0,0,0,1,0,0h0s0,0,0,0h0s0,0,0,0,0,0,0,0l0-.06h0s0,0,0,0l.11-.13h0s0,0,0,0l.06-.07,0,0,.11-.15h0l0,0,0-.07,0-.07h0l0-.08h0a0,0,0,0,1,0,0s0,0,0,0h0s0,0,0-.05v0a.85.85,0,0,1,.14-.19h0c-.05,0-.08.08-.13.11s-.11,0-.06,0l.08-.07h0a1.53,1.53,0,0,1,.18-.18l.11-.08h0l.08-.09h0c.33-.32.9-.31,1.33-.51.17-.07.38,0,.56,0a.51.51,0,0,1,.31.07C14.74,15.27,14.45,15.46,14.16,15.64Zm.72-2.43s.1,0,.14-.07h-.28s0,0,0-.07c-.17,0-.38.1-.56.14s-.45.24-.73.31-.7.45-1.12.59c0,0,0,0,0-.07s.17-.14.24-.24,0-.07,0-.07a6.75,6.75,0,0,1,1-.91v-.1c.1-.14.28-.21.35-.38a.61.61,0,0,1,.35-.31s-.1,0-.1-.1-.28.07-.42,0a.48.48,0,0,1,.22-.12.14.14,0,0,1-.08,0c0-.07.07-.15.17-.17a.78.78,0,0,0,.42-.14c-.24,0-.52.07-.77-.07a1.86,1.86,0,0,1,.87-1s.1,0,.1,0a.34.34,0,0,1-.28.35,3.69,3.69,0,0,1,.84.21c0,.07-.1,0-.14,0,.17.1.38,0,.56.17-.1.1-.21,0-.31,0a9.23,9.23,0,0,1,3.14,1.25,9.65,9.65,0,0,1-2.4.73.92.92,0,0,1-.28,0s0,.1,0,.1a.58.58,0,0,0-.35.07C15.19,13.28,15,13.32,14.88,13.21Z"/><path class="cls-7" d="M50.72,0H30.88l.19.09.5.27a1.56,1.56,0,0,1,.66.56.51.51,0,0,1,.1.45c-.07.17-.1.45-.28.52a1.38,1.38,0,0,1-.73.07,1.54,1.54,0,0,1-.42-.07,2.85,2.85,0,0,1,1.36.94c0,.07.17.1.31.1s0,.07,0,.1-.14.1-.1.21h.1c.17-.07.14-.42.38-.31a.4.4,0,0,1,.14.52,2.18,2.18,0,0,1-.4.35.33.33,0,0,0,0,.24,1.06,1.06,0,0,1,.17.42c.1.24.14.52.24.77a4.76,4.76,0,0,1,.24,1.57c0,.28-.14.52,0,.8a2.82,2.82,0,0,0,.38.73,4.62,4.62,0,0,1,.38.56c.21.35.59.7.42,1.12-.1.24-.49.21-.73.35s0,.45.07.63-.21.52-.45.63c.07.1.21.07.24.14s.21.28.1.45-.56.31-.35.63a.94.94,0,0,1,0,.77.84.84,0,0,1-.63.52,1.34,1.34,0,0,1-.66,0,.58.58,0,0,0-.21-.07,15.51,15.51,0,0,0-1.78-.24,1.86,1.86,0,0,0-.49.14,3.08,3.08,0,0,0-.42.37h0l-.08.08,0,.05,0,0a3.51,3.51,0,0,0-.27.4l0,0,0,0a3.44,3.44,0,0,0-.26.64,2.12,2.12,0,0,0,0,1.65c.05.05,1.15.39,1.92.73a5.53,5.53,0,0,1,.82.42H50.7V0Z"/><path class="cls-8" d="M32.06,6.73c.14,0,.35,0,.35.1-.07.28-.49.35-.7.63h-.1c-.1.07-.07.24-.17.24a.55.55,0,0,0-.31,0,.6.6,0,0,0,.52.21s.1.07.1.14a.13.13,0,0,0,.07,0s.07,0,.07,0v.14c-.1.14-.28.07-.42.1a1.55,1.55,0,0,0,.8,0c.21-.07,0-.42.14-.59-.07,0,0-.1-.07-.1a1.39,1.39,0,0,1,.21-.21.25.25,0,0,0,.21-.1c0-.07-.14-.1-.1-.17.21-.14.38-.35.31-.56s-.31-.1-.49-.17a1.2,1.2,0,0,0-.59,0,2.51,2.51,0,0,0-.52.14,2.47,2.47,0,0,0-.66.35,5.38,5.38,0,0,1,.77-.21A2.25,2.25,0,0,1,32.06,6.73Z"/></svg>