<svg width="14" height="15" viewBox="0 0 14 15" fill="none" xmlns="http://www.w3.org/2000/svg">
<path d="M1.55556 7.5C1.55556 7.74711 1.91411 8.17737 2.74556 8.59974C3.822 9.14605 5.34878 9.47368 7 9.47368C8.65122 9.47368 10.178 9.14605 11.2544 8.59974C12.0859 8.17737 12.4444 7.74711 12.4444 7.5V5.78605C11.1611 6.59132 9.19878 7.10526 7 7.10526C4.80122 7.10526 2.83889 6.59053 1.55556 5.78605V7.5ZM12.4444 9.73342C11.1611 10.5387 9.19878 11.0526 7 11.0526C4.80122 11.0526 2.83889 10.5379 1.55556 9.73342V11.4474C1.55556 11.6945 1.91411 12.1247 2.74556 12.5471C3.822 13.0934 5.34878 13.4211 7 13.4211C8.65122 13.4211 10.178 13.0934 11.2544 12.5471C12.0859 12.1247 12.4444 11.6945 12.4444 11.4474V9.73342ZM0 11.4474V3.55263C0 1.59079 3.13444 0 7 0C10.8656 0 14 1.59079 14 3.55263V11.4474C14 13.4092 10.8656 15 7 15C3.13444 15 0 13.4092 0 11.4474ZM7 5.52632C8.65122 5.52632 10.178 5.19868 11.2544 4.65237C12.0859 4.23 12.4444 3.79974 12.4444 3.55263C12.4444 3.30553 12.0859 2.87526 11.2544 2.45289C10.178 1.90658 8.65122 1.57895 7 1.57895C5.34878 1.57895 3.822 1.90658 2.74556 2.45289C1.91411 2.87526 1.55556 3.30553 1.55556 3.55263C1.55556 3.79974 1.91411 4.23 2.74556 4.65237C3.822 5.19868 5.34878 5.52632 7 5.52632Z" fill="black"/>
</svg>
